<svg width="13" height="15" viewBox="0 0 13 15" fill="none" xmlns="http://www.w3.org/2000/svg">
<path d="M4.375 1.625V2.5H7.875V1.625C7.875 1.16016 8.25781 0.75 8.75 0.75C9.21484 0.75 9.625 1.16016 9.625 1.625V2.5H10.9375C11.6484 2.5 12.25 3.10156 12.25 3.8125V5.125H0V3.8125C0 3.10156 0.574219 2.5 1.3125 2.5H2.625V1.625C2.625 1.16016 3.00781 0.75 3.5 0.75C3.96484 0.75 4.375 1.16016 4.375 1.625ZM0 6H12.25V13.4375C12.25 14.1758 11.6484 14.75 10.9375 14.75H1.3125C0.574219 14.75 0 14.1758 0 13.4375V6ZM8.96875 9.08984C9.24219 8.84375 9.24219 8.43359 8.96875 8.16016C8.72266 7.91406 8.3125 7.91406 8.06641 8.16016L5.46875 10.7852L4.15625 9.47266C3.91016 9.22656 3.5 9.22656 3.25391 9.47266C2.98047 9.74609 2.98047 10.1562 3.25391 10.4023L5.00391 12.1523C5.25 12.4258 5.66016 12.4258 5.90625 12.1523L8.96875 9.08984Z" fill="white"/>
<path d="M4.375 1.625V2.5H7.875V1.625C7.875 1.16016 8.25781 0.75 8.75 0.75C9.21484 0.75 9.625 1.16016 9.625 1.625V2.5H10.9375C11.6484 2.5 12.25 3.10156 12.25 3.8125V5.125H0V3.8125C0 3.10156 0.574219 2.5 1.3125 2.5H2.625V1.625C2.625 1.16016 3.00781 0.75 3.5 0.75C3.96484 0.75 4.375 1.16016 4.375 1.625ZM0 6H12.25V13.4375C12.25 14.1758 11.6484 14.75 10.9375 14.75H1.3125C0.574219 14.75 0 14.1758 0 13.4375V6ZM8.96875 9.08984C9.24219 8.84375 9.24219 8.43359 8.96875 8.16016C8.72266 7.91406 8.3125 7.91406 8.06641 8.16016L5.46875 10.7852L4.15625 9.47266C3.91016 9.22656 3.5 9.22656 3.25391 9.47266C2.98047 9.74609 2.98047 10.1562 3.25391 10.4023L5.00391 12.1523C5.25 12.4258 5.66016 12.4258 5.90625 12.1523L8.96875 9.08984Z" fill="#007E6C" fill-opacity="0.2"/>
<path d="M4.375 1.625V2.5H7.875V1.625C7.875 1.16016 8.25781 0.75 8.75 0.75C9.21484 0.75 9.625 1.16016 9.625 1.625V2.5H10.9375C11.6484 2.5 12.25 3.10156 12.25 3.8125V5.125H0V3.8125C0 3.10156 0.574219 2.5 1.3125 2.5H2.625V1.625C2.625 1.16016 3.00781 0.75 3.5 0.75C3.96484 0.75 4.375 1.16016 4.375 1.625ZM0 6H12.25V13.4375C12.25 14.1758 11.6484 14.75 10.9375 14.75H1.3125C0.574219 14.75 0 14.1758 0 13.4375V6ZM8.96875 9.08984C9.24219 8.84375 9.24219 8.43359 8.96875 8.16016C8.72266 7.91406 8.3125 7.91406 8.06641 8.16016L5.46875 10.7852L4.15625 9.47266C3.91016 9.22656 3.5 9.22656 3.25391 9.47266C2.98047 9.74609 2.98047 10.1562 3.25391 10.4023L5.00391 12.1523C5.25 12.4258 5.66016 12.4258 5.90625 12.1523L8.96875 9.08984Z" fill="black" fill-opacity="0.8"/>
</svg>
