<svg width="17" height="19" viewBox="0 0 17 19" fill="none" xmlns="http://www.w3.org/2000/svg">
<path d="M6.25 1.375V2.5H10.75V1.375C10.75 0.777344 11.2422 0.25 11.875 0.25C12.4727 0.25 13 0.777344 13 1.375V2.5H14.6875C15.6016 2.5 16.375 3.27344 16.375 4.1875V5.875H0.625V4.1875C0.625 3.27344 1.36328 2.5 2.3125 2.5H4V1.375C4 0.777344 4.49219 0.25 5.125 0.25C5.72266 0.25 6.25 0.777344 6.25 1.375ZM0.625 7H16.375V16.5625C16.375 17.5117 15.6016 18.25 14.6875 18.25H2.3125C1.36328 18.25 0.625 17.5117 0.625 16.5625V7ZM12.1562 10.9727C12.5078 10.6562 12.5078 10.1289 12.1562 9.77734C11.8398 9.46094 11.3125 9.46094 10.9961 9.77734L7.65625 13.1523L5.96875 11.4648C5.65234 11.1484 5.125 11.1484 4.80859 11.4648C4.45703 11.8164 4.45703 12.3438 4.80859 12.6602L7.05859 14.9102C7.375 15.2617 7.90234 15.2617 8.21875 14.9102L12.1562 10.9727Z" fill="white"/>
</svg>
