<svg width="101" height="18" viewBox="0 0 101 18" fill="none" xmlns="http://www.w3.org/2000/svg">
<path d="M5.16388 14.132C4.57988 14.132 4.02788 14.028 3.50788 13.82C2.98788 13.612 2.52788 13.312 2.12788 12.92C1.72788 12.528 1.41188 12.06 1.17988 11.516C0.947875 10.964 0.831875 10.348 0.831875 9.668C0.831875 8.988 0.947875 8.376 1.17988 7.832C1.41188 7.28 1.72788 6.812 2.12788 6.428C2.52788 6.044 2.98788 5.752 3.50788 5.552C4.02788 5.344 4.57988 5.24 5.16388 5.24C5.74788 5.24 6.29988 5.344 6.81988 5.552C7.33988 5.752 7.79988 6.044 8.19988 6.428C8.60788 6.812 8.92388 7.28 9.14788 7.832C9.37988 8.376 9.49588 8.988 9.49588 9.668C9.49588 10.348 9.37988 10.964 9.14788 11.516C8.92388 12.06 8.60788 12.528 8.19988 12.92C7.79988 13.312 7.33988 13.612 6.81988 13.82C6.29988 14.028 5.74788 14.132 5.16388 14.132ZM5.16388 13.592C5.66788 13.592 6.14388 13.5 6.59188 13.316C7.03988 13.124 7.43588 12.856 7.77988 12.512C8.12388 12.16 8.39188 11.744 8.58388 11.264C8.77588 10.784 8.87188 10.252 8.87188 9.668C8.87188 9.084 8.77588 8.556 8.58388 8.084C8.39188 7.604 8.12388 7.192 7.77988 6.848C7.43588 6.504 7.03988 6.24 6.59188 6.056C6.14388 5.872 5.66788 5.78 5.16388 5.78C4.65988 5.78 4.18388 5.872 3.73588 6.056C3.28788 6.24 2.89188 6.504 2.54788 6.848C2.21188 7.192 1.94388 7.604 1.74388 8.084C1.55188 8.556 1.45588 9.084 1.45588 9.668C1.45588 10.252 1.55188 10.784 1.74388 11.264C1.94388 11.744 2.21188 12.16 2.54788 12.512C2.89188 12.856 3.28788 13.124 3.73588 13.316C4.18388 13.5 4.65988 13.592 5.16388 13.592ZM5.25988 12.32C4.81188 12.32 4.40388 12.216 4.03588 12.008C3.66788 11.792 3.37588 11.488 3.15988 11.096C2.94388 10.696 2.83588 10.22 2.83588 9.668C2.83588 9.148 2.95188 8.7 3.18388 8.324C3.41588 7.94 3.71988 7.648 4.09588 7.448C4.47188 7.24 4.87588 7.136 5.30788 7.136C5.69188 7.136 6.01188 7.208 6.26788 7.352C6.53188 7.496 6.76788 7.676 6.97588 7.892L6.51988 8.42C6.33588 8.244 6.15588 8.108 5.97988 8.012C5.80388 7.916 5.59588 7.868 5.35588 7.868C4.85988 7.868 4.46388 8.036 4.16788 8.372C3.87188 8.708 3.72388 9.14 3.72388 9.668C3.72388 10.26 3.86388 10.728 4.14388 11.072C4.43188 11.416 4.81988 11.588 5.30788 11.588C5.59588 11.588 5.84388 11.532 6.05188 11.42C6.26788 11.3 6.47588 11.156 6.67588 10.988L7.08388 11.564C6.83588 11.772 6.57188 11.952 6.29188 12.104C6.01188 12.248 5.66788 12.32 5.25988 12.32ZM13.3678 14V13.352C14.2318 12.496 14.9638 11.744 15.5638 11.096C16.1638 10.44 16.6198 9.852 16.9318 9.332C17.2438 8.804 17.3998 8.308 17.3998 7.844C17.3998 7.516 17.3398 7.228 17.2198 6.98C17.1078 6.724 16.9318 6.528 16.6918 6.392C16.4518 6.248 16.1478 6.176 15.7798 6.176C15.4198 6.176 15.0838 6.276 14.7718 6.476C14.4678 6.676 14.1958 6.916 13.9558 7.196L13.3198 6.584C13.6718 6.184 14.0518 5.868 14.4598 5.636C14.8678 5.404 15.3518 5.288 15.9118 5.288C16.4398 5.288 16.8918 5.392 17.2678 5.6C17.6518 5.808 17.9478 6.1 18.1558 6.476C18.3718 6.852 18.4798 7.292 18.4798 7.796C18.4798 8.332 18.3278 8.876 18.0238 9.428C17.7198 9.98 17.3038 10.56 16.7758 11.168C16.2478 11.768 15.6478 12.424 14.9758 13.136C15.1998 13.12 15.4398 13.104 15.6958 13.088C15.9518 13.064 16.1918 13.052 16.4158 13.052H18.8998V14H13.3678ZM22.8321 14.156C22.2641 14.156 21.7761 13.984 21.3681 13.64C20.9601 13.296 20.6441 12.792 20.4201 12.128C20.2041 11.464 20.0961 10.652 20.0961 9.692C20.0961 8.74 20.2041 7.936 20.4201 7.28C20.6441 6.624 20.9601 6.128 21.3681 5.792C21.7761 5.456 22.2641 5.288 22.8321 5.288C23.4001 5.288 23.8881 5.456 24.2961 5.792C24.7041 6.128 25.0161 6.624 25.2321 7.28C25.4561 7.936 25.5681 8.74 25.5681 9.692C25.5681 10.652 25.4561 11.464 25.2321 12.128C25.0161 12.792 24.7041 13.296 24.2961 13.64C23.8881 13.984 23.4001 14.156 22.8321 14.156ZM22.8321 13.268C23.1681 13.268 23.4601 13.144 23.7081 12.896C23.9641 12.648 24.1601 12.26 24.2961 11.732C24.4401 11.204 24.5121 10.524 24.5121 9.692C24.5121 8.86 24.4401 8.184 24.2961 7.664C24.1601 7.144 23.9641 6.764 23.7081 6.524C23.4601 6.284 23.1681 6.164 22.8321 6.164C22.5041 6.164 22.2121 6.284 21.9561 6.524C21.7001 6.764 21.5001 7.144 21.3561 7.664C21.2201 8.184 21.1521 8.86 21.1521 9.692C21.1521 10.524 21.2201 11.204 21.3561 11.732C21.5001 12.26 21.7001 12.648 21.9561 12.896C22.2121 13.144 22.5041 13.268 22.8321 13.268ZM26.6803 14V13.352C27.5443 12.496 28.2763 11.744 28.8763 11.096C29.4763 10.44 29.9323 9.852 30.2443 9.332C30.5563 8.804 30.7123 8.308 30.7123 7.844C30.7123 7.516 30.6523 7.228 30.5323 6.98C30.4203 6.724 30.2443 6.528 30.0043 6.392C29.7643 6.248 29.4603 6.176 29.0923 6.176C28.7323 6.176 28.3963 6.276 28.0843 6.476C27.7803 6.676 27.5083 6.916 27.2683 7.196L26.6323 6.584C26.9843 6.184 27.3643 5.868 27.7723 5.636C28.1803 5.404 28.6643 5.288 29.2243 5.288C29.7523 5.288 30.2043 5.392 30.5803 5.6C30.9643 5.808 31.2603 6.1 31.4683 6.476C31.6843 6.852 31.7923 7.292 31.7923 7.796C31.7923 8.332 31.6403 8.876 31.3363 9.428C31.0323 9.98 30.6163 10.56 30.0883 11.168C29.5603 11.768 28.9603 12.424 28.2883 13.136C28.5123 13.12 28.7523 13.104 29.0083 13.088C29.2643 13.064 29.5043 13.052 29.7283 13.052H32.2123V14H26.6803ZM35.9646 14.156C35.5086 14.156 35.1046 14.1 34.7526 13.988C34.4086 13.876 34.1046 13.728 33.8406 13.544C33.5766 13.36 33.3486 13.16 33.1566 12.944L33.7206 12.236C33.9766 12.5 34.2766 12.736 34.6206 12.944C34.9726 13.144 35.3966 13.244 35.8926 13.244C36.2446 13.244 36.5526 13.18 36.8166 13.052C37.0886 12.924 37.3006 12.744 37.4526 12.512C37.6046 12.272 37.6806 11.992 37.6806 11.672C37.6806 11.328 37.5926 11.032 37.4166 10.784C37.2486 10.528 36.9646 10.332 36.5646 10.196C36.1646 10.052 35.6246 9.98 34.9446 9.98V9.128C35.5526 9.128 36.0326 9.06 36.3846 8.924C36.7366 8.78 36.9886 8.588 37.1406 8.348C37.3006 8.1 37.3806 7.828 37.3806 7.532C37.3806 7.116 37.2486 6.788 36.9846 6.548C36.7206 6.3 36.3566 6.176 35.8926 6.176C35.5406 6.176 35.2086 6.26 34.8966 6.428C34.5926 6.588 34.3166 6.796 34.0686 7.052L33.4806 6.356C33.8166 6.052 34.1806 5.8 34.5726 5.6C34.9726 5.392 35.4246 5.288 35.9286 5.288C36.4246 5.288 36.8646 5.372 37.2486 5.54C37.6406 5.708 37.9446 5.956 38.1606 6.284C38.3846 6.604 38.4966 6.992 38.4966 7.448C38.4966 7.968 38.3526 8.396 38.0646 8.732C37.7766 9.068 37.4006 9.32 36.9366 9.488V9.536C37.2806 9.624 37.5926 9.764 37.8726 9.956C38.1526 10.148 38.3766 10.392 38.5446 10.688C38.7126 10.976 38.7966 11.32 38.7966 11.72C38.7966 12.232 38.6686 12.668 38.4126 13.028C38.1566 13.388 37.8166 13.668 37.3926 13.868C36.9686 14.06 36.4926 14.156 35.9646 14.156ZM43.3604 14V5.204H44.4644V13.052H48.3164V14H43.3604ZM51.2681 14.156C50.9081 14.156 50.5841 14.084 50.2961 13.94C50.0081 13.796 49.7801 13.588 49.6121 13.316C49.4521 13.036 49.3721 12.7 49.3721 12.308C49.3721 11.596 49.6881 11.052 50.3201 10.676C50.9601 10.292 51.9761 10.024 53.3681 9.872C53.3681 9.592 53.3281 9.328 53.2481 9.08C53.1761 8.824 53.0441 8.62 52.8521 8.468C52.6601 8.308 52.3841 8.228 52.0241 8.228C51.6481 8.228 51.2921 8.304 50.9561 8.456C50.6281 8.6 50.3321 8.756 50.0681 8.924L49.6481 8.168C49.8481 8.04 50.0801 7.912 50.3441 7.784C50.6081 7.648 50.8961 7.536 51.2081 7.448C51.5201 7.36 51.8521 7.316 52.2041 7.316C52.7321 7.316 53.1601 7.428 53.4881 7.652C53.8241 7.876 54.0681 8.188 54.2201 8.588C54.3801 8.98 54.4601 9.448 54.4601 9.992V14H53.5601L53.4641 13.22H53.4281C53.1241 13.476 52.7881 13.696 52.4201 13.88C52.0601 14.064 51.6761 14.156 51.2681 14.156ZM51.5801 13.268C51.8921 13.268 52.1881 13.196 52.4681 13.052C52.7561 12.908 53.0561 12.696 53.3681 12.416V10.604C52.6401 10.684 52.0601 10.8 51.6281 10.952C51.1961 11.096 50.8881 11.276 50.7041 11.492C50.5201 11.7 50.4281 11.948 50.4281 12.236C50.4281 12.612 50.5401 12.88 50.7641 13.04C50.9881 13.192 51.2601 13.268 51.5801 13.268ZM56.5298 14V7.484H57.4298L57.5378 8.432H57.5618C57.8738 8.12 58.2018 7.856 58.5458 7.64C58.8978 7.424 59.2978 7.316 59.7458 7.316C60.4338 7.316 60.9378 7.536 61.2578 7.976C61.5778 8.408 61.7378 9.04 61.7378 9.872V14H60.6458V10.016C60.6458 9.4 60.5458 8.956 60.3458 8.684C60.1538 8.412 59.8418 8.276 59.4098 8.276C59.0738 8.276 58.7738 8.36 58.5098 8.528C58.2458 8.696 57.9538 8.944 57.6338 9.272V14H56.5298ZM66.074 14.156C65.53 14.156 65.054 14.024 64.646 13.76C64.246 13.496 63.934 13.112 63.71 12.608C63.494 12.096 63.386 11.476 63.386 10.748C63.386 10.044 63.518 9.436 63.782 8.924C64.046 8.412 64.39 8.016 64.814 7.736C65.246 7.456 65.71 7.316 66.206 7.316C66.59 7.316 66.918 7.384 67.19 7.52C67.47 7.648 67.754 7.832 68.042 8.072L67.982 6.956V4.448H69.086V14H68.186L68.09 13.232H68.054C67.798 13.488 67.502 13.708 67.166 13.892C66.83 14.068 66.466 14.156 66.074 14.156ZM66.314 13.232C66.618 13.232 66.906 13.16 67.178 13.016C67.45 12.864 67.718 12.64 67.982 12.344V8.924C67.71 8.676 67.446 8.5 67.19 8.396C66.934 8.292 66.67 8.24 66.398 8.24C66.054 8.24 65.738 8.348 65.45 8.564C65.17 8.772 64.942 9.064 64.766 9.44C64.598 9.808 64.514 10.24 64.514 10.736C64.514 11.256 64.586 11.704 64.73 12.08C64.874 12.456 65.078 12.744 65.342 12.944C65.614 13.136 65.938 13.232 66.314 13.232ZM71.2954 14V7.484H72.3994V14H71.2954ZM71.8474 6.14C71.6314 6.14 71.4554 6.076 71.3194 5.948C71.1914 5.812 71.1274 5.632 71.1274 5.408C71.1274 5.192 71.1914 5.02 71.3194 4.892C71.4554 4.764 71.6314 4.7 71.8474 4.7C72.0634 4.7 72.2394 4.764 72.3754 4.892C72.5114 5.02 72.5794 5.192 72.5794 5.408C72.5794 5.632 72.5114 5.812 72.3754 5.948C72.2394 6.076 72.0634 6.14 71.8474 6.14ZM76.6401 14.156C76.1841 14.156 75.8201 14.068 75.5481 13.892C75.2761 13.708 75.0801 13.452 74.9601 13.124C74.8481 12.796 74.7921 12.416 74.7921 11.984V8.372H73.8201V7.544L74.8521 7.484L74.9721 5.648H75.8841V7.484H77.6601V8.372H75.8841V12.02C75.8841 12.412 75.9561 12.72 76.1001 12.944C76.2521 13.16 76.5161 13.268 76.8921 13.268C77.0121 13.268 77.1401 13.252 77.2761 13.22C77.4121 13.18 77.5321 13.136 77.6361 13.088L77.8521 13.916C77.6681 13.98 77.4721 14.036 77.2641 14.084C77.0561 14.132 76.8481 14.156 76.6401 14.156ZM81.9151 14V5.204H83.0191V14H81.9151ZM85.3228 14V7.484H86.2228L86.3308 8.432H86.3548C86.6668 8.12 86.9948 7.856 87.3388 7.64C87.6908 7.424 88.0908 7.316 88.5388 7.316C89.2268 7.316 89.7308 7.536 90.0508 7.976C90.3708 8.408 90.5308 9.04 90.5308 9.872V14H89.4388V10.016C89.4388 9.4 89.3388 8.956 89.1388 8.684C88.9468 8.412 88.6348 8.276 88.2028 8.276C87.8668 8.276 87.5668 8.36 87.3027 8.528C87.0388 8.696 86.7468 8.944 86.4268 9.272V14H85.3228ZM95.215 14.156C94.639 14.156 94.119 14.024 93.655 13.76C93.199 13.488 92.835 13.1 92.563 12.596C92.299 12.084 92.167 11.468 92.167 10.748C92.167 10.02 92.311 9.404 92.599 8.9C92.887 8.388 93.271 7.996 93.751 7.724C94.231 7.452 94.747 7.316 95.299 7.316C95.723 7.316 96.087 7.392 96.391 7.544C96.703 7.696 96.971 7.876 97.195 8.084L96.643 8.804C96.459 8.636 96.259 8.5 96.043 8.396C95.835 8.292 95.603 8.24 95.347 8.24C94.955 8.24 94.603 8.344 94.291 8.552C93.979 8.76 93.735 9.052 93.559 9.428C93.383 9.804 93.295 10.244 93.295 10.748C93.295 11.244 93.379 11.68 93.547 12.056C93.723 12.432 93.959 12.724 94.255 12.932C94.559 13.14 94.911 13.244 95.311 13.244C95.615 13.244 95.895 13.184 96.151 13.064C96.407 12.936 96.639 12.78 96.847 12.596L97.327 13.34C97.031 13.596 96.703 13.796 96.343 13.94C95.983 14.084 95.607 14.156 95.215 14.156ZM99.3282 14.156C99.1122 14.156 98.9242 14.08 98.7642 13.928C98.6122 13.768 98.5362 13.568 98.5362 13.328C98.5362 13.072 98.6122 12.868 98.7642 12.716C98.9242 12.564 99.1122 12.488 99.3282 12.488C99.5442 12.488 99.7282 12.564 99.8802 12.716C100.04 12.868 100.12 13.072 100.12 13.328C100.12 13.568 100.04 13.768 99.8802 13.928C99.7282 14.08 99.5442 14.156 99.3282 14.156Z" fill="white"/>
</svg>
