<svg width="232" height="18" viewBox="0 0 232 18" fill="none" xmlns="http://www.w3.org/2000/svg">
<path d="M0.6 7.532H6.312V8.372H0.6V7.532ZM7.116 5.348H7.992V11.972H7.116V5.348ZM3.108 4.928H3.996V14.936H3.108V4.928ZM10.056 4.148H10.956V13.76C10.956 14.072 10.912 14.304 10.824 14.456C10.744 14.608 10.608 14.724 10.416 14.804C10.216 14.876 9.94 14.92 9.588 14.936C9.244 14.96 8.796 14.972 8.244 14.972C8.228 14.884 8.2 14.784 8.16 14.672C8.12 14.568 8.08 14.46 8.04 14.348C8 14.236 7.956 14.14 7.908 14.06C8.332 14.068 8.716 14.072 9.06 14.072C9.404 14.072 9.632 14.072 9.744 14.072C9.856 14.064 9.936 14.04 9.984 14C10.032 13.952 10.056 13.872 10.056 13.76V4.148ZM5.496 3.992L6.168 4.676C5.712 4.86 5.18 5.028 4.572 5.18C3.964 5.332 3.332 5.464 2.676 5.576C2.028 5.688 1.4 5.784 0.792 5.864C0.768 5.76 0.728 5.64 0.672 5.504C0.624 5.368 0.568 5.252 0.504 5.156C0.952 5.092 1.408 5.02 1.872 4.94C2.344 4.852 2.8 4.76 3.24 4.664C3.688 4.56 4.104 4.452 4.488 4.34C4.88 4.228 5.216 4.112 5.496 3.992ZM3.084 7.916L3.72 8.192C3.568 8.648 3.384 9.116 3.168 9.596C2.952 10.076 2.716 10.544 2.46 11C2.204 11.456 1.936 11.884 1.656 12.284C1.376 12.676 1.096 13.012 0.816 13.292C0.784 13.204 0.736 13.112 0.672 13.016C0.616 12.912 0.556 12.808 0.492 12.704C0.436 12.6 0.38 12.512 0.324 12.44C0.596 12.192 0.864 11.896 1.128 11.552C1.4 11.2 1.66 10.82 1.908 10.412C2.156 10.004 2.38 9.588 2.58 9.164C2.788 8.732 2.956 8.316 3.084 7.916ZM3.876 9.164C3.996 9.244 4.164 9.376 4.38 9.56C4.604 9.744 4.844 9.944 5.1 10.16C5.356 10.376 5.588 10.576 5.796 10.76C6.012 10.944 6.168 11.08 6.264 11.168L5.748 11.924C5.628 11.788 5.464 11.616 5.256 11.408C5.048 11.192 4.828 10.972 4.596 10.748C4.364 10.524 4.14 10.312 3.924 10.112C3.708 9.912 3.528 9.756 3.384 9.644L3.876 9.164ZM14.352 4.76H22.116V5.624H14.352V4.76ZM14.352 7.556H22.092V8.408H14.352V7.556ZM14.28 10.424H22.116V11.276H14.28V10.424ZM13.836 4.76H14.724V9.116C14.724 9.572 14.704 10.06 14.664 10.58C14.624 11.1 14.548 11.628 14.436 12.164C14.332 12.692 14.168 13.2 13.944 13.688C13.728 14.176 13.44 14.62 13.08 15.02C13.04 14.956 12.976 14.884 12.888 14.804C12.8 14.732 12.712 14.66 12.624 14.588C12.536 14.516 12.456 14.464 12.384 14.432C12.72 14.056 12.984 13.648 13.176 13.208C13.368 12.768 13.512 12.316 13.608 11.852C13.704 11.38 13.764 10.912 13.788 10.448C13.82 9.984 13.836 9.54 13.836 9.116V4.76ZM21.756 4.76H22.644V13.736C22.644 14.024 22.6 14.244 22.512 14.396C22.432 14.548 22.292 14.664 22.092 14.744C21.892 14.816 21.612 14.86 21.252 14.876C20.892 14.892 20.428 14.896 19.86 14.888C19.836 14.776 19.792 14.632 19.728 14.456C19.672 14.288 19.612 14.144 19.548 14.024C19.828 14.032 20.096 14.036 20.352 14.036C20.616 14.044 20.844 14.044 21.036 14.036C21.228 14.036 21.36 14.036 21.432 14.036C21.552 14.028 21.636 14.004 21.684 13.964C21.732 13.924 21.756 13.848 21.756 13.736V4.76ZM17.604 5.084H18.516V14.852H17.604V5.084ZM24.78 5.912H29.052V6.728H24.78V5.912ZM24.528 8.696H29.28V9.524H24.528V8.696ZM26.508 4.04H27.36V8.192C27.36 8.72 27.336 9.284 27.288 9.884C27.248 10.476 27.152 11.072 27 11.672C26.856 12.264 26.628 12.832 26.316 13.376C26.012 13.912 25.596 14.396 25.068 14.828C25.028 14.756 24.972 14.68 24.9 14.6C24.828 14.52 24.752 14.44 24.672 14.36C24.6 14.28 24.528 14.216 24.456 14.168C24.944 13.8 25.328 13.372 25.608 12.884C25.888 12.388 26.088 11.868 26.208 11.324C26.336 10.78 26.416 10.24 26.448 9.704C26.488 9.168 26.508 8.664 26.508 8.192V4.04ZM27.168 10.124C27.248 10.196 27.36 10.312 27.504 10.472C27.656 10.632 27.82 10.812 27.996 11.012C28.18 11.204 28.36 11.4 28.536 11.6C28.72 11.8 28.88 11.98 29.016 12.14C29.16 12.3 29.26 12.416 29.316 12.488L28.704 13.16C28.6 13.008 28.456 12.812 28.272 12.572C28.088 12.332 27.892 12.084 27.684 11.828C27.476 11.564 27.276 11.32 27.084 11.096C26.892 10.872 26.736 10.696 26.616 10.568L27.168 10.124ZM30.564 7.136V8.312H34.008V7.136H30.564ZM30.564 9.056V10.268H34.008V9.056H30.564ZM30.564 5.204V6.38H34.008V5.204H30.564ZM29.724 4.388H34.872V11.072H29.724V4.388ZM32.592 10.724H33.444V13.628C33.444 13.764 33.46 13.852 33.492 13.892C33.524 13.932 33.604 13.952 33.732 13.952C33.772 13.952 33.844 13.952 33.948 13.952C34.052 13.952 34.156 13.952 34.26 13.952C34.372 13.952 34.452 13.952 34.5 13.952C34.588 13.952 34.652 13.916 34.692 13.844C34.74 13.772 34.772 13.624 34.788 13.4C34.812 13.176 34.828 12.828 34.836 12.356C34.9 12.404 34.976 12.452 35.064 12.5C35.152 12.548 35.244 12.588 35.34 12.62C35.444 12.652 35.532 12.68 35.604 12.704C35.58 13.248 35.532 13.668 35.46 13.964C35.396 14.26 35.296 14.464 35.16 14.576C35.024 14.688 34.836 14.744 34.596 14.744C34.556 14.744 34.488 14.744 34.392 14.744C34.304 14.744 34.208 14.744 34.104 14.744C34 14.744 33.9 14.744 33.804 14.744C33.716 14.744 33.652 14.744 33.612 14.744C33.34 14.744 33.128 14.712 32.976 14.648C32.832 14.584 32.732 14.468 32.676 14.3C32.62 14.14 32.592 13.916 32.592 13.628V10.724ZM30.708 10.88H31.572C31.516 11.36 31.428 11.808 31.308 12.224C31.196 12.632 31.032 13.008 30.816 13.352C30.608 13.688 30.328 13.988 29.976 14.252C29.624 14.524 29.184 14.756 28.656 14.948C28.616 14.844 28.54 14.724 28.428 14.588C28.324 14.46 28.228 14.356 28.14 14.276C28.78 14.068 29.276 13.8 29.628 13.472C29.98 13.144 30.232 12.764 30.384 12.332C30.544 11.892 30.652 11.408 30.708 10.88ZM42.144 9.068L42.876 8.696C43.1 8.984 43.324 9.292 43.548 9.62C43.772 9.948 43.972 10.276 44.148 10.604C44.332 10.924 44.472 11.212 44.568 11.468L43.764 11.888C43.684 11.632 43.556 11.34 43.38 11.012C43.212 10.684 43.02 10.352 42.804 10.016C42.588 9.672 42.368 9.356 42.144 9.068ZM42.204 6.092H46.776V6.944H42.204V6.092ZM46.404 6.092H47.28C47.28 6.092 47.28 6.124 47.28 6.188C47.28 6.244 47.28 6.308 47.28 6.38C47.28 6.452 47.276 6.508 47.268 6.548C47.22 7.908 47.168 9.056 47.112 9.992C47.064 10.928 47.004 11.7 46.932 12.308C46.868 12.908 46.792 13.376 46.704 13.712C46.616 14.048 46.508 14.288 46.38 14.432C46.252 14.608 46.112 14.728 45.96 14.792C45.808 14.856 45.62 14.9 45.396 14.924C45.196 14.948 44.924 14.956 44.58 14.948C44.236 14.94 43.884 14.928 43.524 14.912C43.516 14.776 43.484 14.62 43.428 14.444C43.38 14.276 43.316 14.132 43.236 14.012C43.636 14.044 44.004 14.064 44.34 14.072C44.684 14.08 44.928 14.084 45.072 14.084C45.2 14.084 45.304 14.072 45.384 14.048C45.464 14.024 45.536 13.972 45.6 13.892C45.704 13.788 45.796 13.576 45.876 13.256C45.956 12.928 46.028 12.468 46.092 11.876C46.156 11.284 46.212 10.528 46.26 9.608C46.308 8.688 46.356 7.58 46.404 6.284V6.092ZM42.66 3.908L43.572 4.112C43.404 4.688 43.2 5.256 42.96 5.816C42.728 6.368 42.472 6.884 42.192 7.364C41.912 7.844 41.62 8.268 41.316 8.636C41.252 8.588 41.172 8.532 41.076 8.468C40.98 8.396 40.88 8.328 40.776 8.264C40.672 8.192 40.58 8.136 40.5 8.096C40.82 7.76 41.112 7.372 41.376 6.932C41.648 6.484 41.892 6 42.108 5.48C42.324 4.96 42.508 4.436 42.66 3.908ZM38.34 3.92L39.144 4.232C39 4.52 38.84 4.824 38.664 5.144C38.488 5.464 38.316 5.772 38.148 6.068C37.98 6.356 37.816 6.612 37.656 6.836L37.032 6.56C37.184 6.328 37.34 6.06 37.5 5.756C37.66 5.444 37.816 5.128 37.968 4.808C38.12 4.48 38.244 4.184 38.34 3.92ZM39.792 5.288L40.584 5.624C40.304 6.08 39.992 6.56 39.648 7.064C39.312 7.56 38.972 8.044 38.628 8.516C38.284 8.988 37.96 9.396 37.656 9.74L37.08 9.44C37.312 9.168 37.552 8.86 37.8 8.516C38.048 8.172 38.292 7.812 38.532 7.436C38.78 7.06 39.012 6.688 39.228 6.32C39.444 5.952 39.632 5.608 39.792 5.288ZM36.456 6.452L36.9 5.852C37.124 6.036 37.352 6.24 37.584 6.464C37.816 6.688 38.028 6.912 38.22 7.136C38.412 7.352 38.56 7.548 38.664 7.724L38.184 8.42C38.072 8.228 37.92 8.016 37.728 7.784C37.544 7.552 37.34 7.32 37.116 7.088C36.892 6.856 36.672 6.644 36.456 6.452ZM39.408 8.072L40.08 7.784C40.256 8.048 40.424 8.328 40.584 8.624C40.744 8.92 40.884 9.208 41.004 9.488C41.132 9.768 41.224 10.02 41.28 10.244L40.572 10.58C40.508 10.356 40.416 10.1 40.296 9.812C40.176 9.524 40.04 9.228 39.888 8.924C39.736 8.62 39.576 8.336 39.408 8.072ZM36.432 9.284C36.968 9.268 37.612 9.248 38.364 9.224C39.116 9.192 39.888 9.156 40.68 9.116V9.86C39.92 9.908 39.176 9.952 38.448 9.992C37.72 10.032 37.072 10.068 36.504 10.1L36.432 9.284ZM39.72 10.952L40.392 10.724C40.568 11.092 40.732 11.492 40.884 11.924C41.044 12.356 41.156 12.728 41.22 13.04L40.476 13.292C40.42 12.972 40.32 12.596 40.176 12.164C40.032 11.724 39.88 11.32 39.72 10.952ZM37.092 10.784L37.86 10.916C37.78 11.484 37.668 12.044 37.524 12.596C37.38 13.14 37.212 13.604 37.02 13.988C36.964 13.948 36.892 13.908 36.804 13.868C36.724 13.828 36.636 13.788 36.54 13.748C36.452 13.7 36.372 13.664 36.3 13.64C36.508 13.272 36.672 12.836 36.792 12.332C36.92 11.82 37.02 11.304 37.092 10.784ZM38.472 9.632H39.288V14.984H38.472V9.632Z" fill="white"/>
<path d="M66.125 4.625H60.875C60.4531 4.625 60.125 4.97656 60.125 5.375V5.75H59V5.375C59 4.34375 59.8203 3.5 60.875 3.5H66.125C67.1562 3.5 68 4.34375 68 5.375V10.625C68 11.6797 67.1562 12.5 66.125 12.5H65.75V11.375H66.125C66.5234 11.375 66.875 11.0469 66.875 10.625V5.375C66.875 4.97656 66.5234 4.625 66.125 4.625ZM63.5 6.5C64.3203 6.5 65 7.17969 65 8V14C65 14.8438 64.3203 15.5 63.5 15.5H57.5C56.6562 15.5 56 14.8438 56 14V8C56 7.17969 56.6562 6.5 57.5 6.5H63.5ZM57.5 14.375H63.5C63.6875 14.375 63.875 14.2109 63.875 14V9.5H57.125V14C57.125 14.2109 57.2891 14.375 57.5 14.375Z" fill="white" fill-opacity="0.2"/>
<path d="M101.66 5.384C101.66 5.6 101.736 5.788 101.888 5.948C102.048 6.1 102.236 6.176 102.452 6.176C102.676 6.176 102.864 6.1 103.016 5.948C103.176 5.788 103.256 5.6 103.256 5.384C103.256 5.16 103.176 4.972 103.016 4.82C102.864 4.66 102.676 4.58 102.452 4.58C102.236 4.58 102.048 4.66 101.888 4.82C101.736 4.972 101.66 5.16 101.66 5.384ZM101.108 5.384C101.108 5.136 101.168 4.912 101.288 4.712C101.416 4.504 101.58 4.34 101.78 4.22C101.98 4.092 102.204 4.028 102.452 4.028C102.7 4.028 102.924 4.092 103.124 4.22C103.332 4.34 103.496 4.504 103.616 4.712C103.744 4.912 103.808 5.136 103.808 5.384C103.808 5.632 103.744 5.856 103.616 6.056C103.496 6.256 103.332 6.42 103.124 6.548C102.924 6.668 102.7 6.728 102.452 6.728C102.204 6.728 101.98 6.668 101.78 6.548C101.58 6.42 101.416 6.256 101.288 6.056C101.168 5.856 101.108 5.632 101.108 5.384ZM102.152 6.188C102.112 6.268 102.076 6.36 102.044 6.464C102.02 6.56 101.996 6.668 101.972 6.788C101.908 7.1 101.824 7.448 101.72 7.832C101.616 8.216 101.488 8.612 101.336 9.02C101.192 9.42 101.024 9.808 100.832 10.184C100.64 10.56 100.424 10.904 100.184 11.216C99.816 11.68 99.408 12.112 98.96 12.512C98.512 12.912 98 13.272 97.424 13.592C96.848 13.912 96.192 14.188 95.456 14.42L94.64 13.52C95.424 13.328 96.1 13.088 96.668 12.8C97.244 12.512 97.748 12.188 98.18 11.828C98.612 11.46 98.992 11.064 99.32 10.64C99.608 10.272 99.856 9.86 100.064 9.404C100.28 8.94 100.46 8.476 100.604 8.012C100.748 7.54 100.844 7.112 100.892 6.728C100.78 6.728 100.568 6.728 100.256 6.728C99.944 6.728 99.576 6.728 99.152 6.728C98.728 6.728 98.284 6.728 97.82 6.728C97.364 6.728 96.924 6.728 96.5 6.728C96.076 6.728 95.708 6.728 95.396 6.728C95.084 6.728 94.872 6.728 94.76 6.728C94.52 6.728 94.3 6.732 94.1 6.74C93.9 6.748 93.72 6.756 93.56 6.764V5.696C93.672 5.712 93.796 5.728 93.932 5.744C94.068 5.752 94.208 5.76 94.352 5.768C94.496 5.776 94.632 5.78 94.76 5.78C94.856 5.78 95.028 5.78 95.276 5.78C95.524 5.78 95.816 5.78 96.152 5.78C96.496 5.78 96.86 5.78 97.244 5.78C97.636 5.78 98.02 5.78 98.396 5.78C98.78 5.78 99.136 5.78 99.464 5.78C99.8 5.78 100.084 5.78 100.316 5.78C100.548 5.78 100.704 5.78 100.784 5.78C100.872 5.78 100.972 5.776 101.084 5.768C101.196 5.76 101.308 5.744 101.42 5.72L102.152 6.188ZM106.772 5.06C106.932 5.084 107.104 5.1 107.288 5.108C107.472 5.116 107.66 5.12 107.852 5.12C107.972 5.12 108.188 5.12 108.5 5.12C108.82 5.12 109.18 5.12 109.58 5.12C109.988 5.12 110.392 5.12 110.792 5.12C111.2 5.12 111.564 5.12 111.884 5.12C112.204 5.12 112.432 5.12 112.568 5.12C112.76 5.12 112.952 5.116 113.144 5.108C113.336 5.1 113.508 5.084 113.66 5.06V6.056C113.516 6.04 113.344 6.032 113.144 6.032C112.952 6.024 112.756 6.02 112.556 6.02C112.42 6.02 112.192 6.02 111.872 6.02C111.56 6.02 111.204 6.02 110.804 6.02C110.404 6.02 110 6.02 109.592 6.02C109.192 6.02 108.832 6.02 108.512 6.02C108.2 6.02 107.98 6.02 107.852 6.02C107.668 6.02 107.484 6.024 107.3 6.032C107.116 6.04 106.94 6.048 106.772 6.056V5.06ZM114.536 8.228C114.512 8.276 114.48 8.336 114.44 8.408C114.408 8.472 114.388 8.528 114.38 8.576C114.22 9.168 114 9.764 113.72 10.364C113.44 10.956 113.076 11.496 112.628 11.984C111.996 12.672 111.312 13.208 110.576 13.592C109.848 13.976 109.1 14.276 108.332 14.492L107.588 13.64C108.436 13.464 109.224 13.188 109.952 12.812C110.68 12.436 111.3 11.98 111.812 11.444C112.18 11.06 112.48 10.632 112.712 10.16C112.952 9.68 113.128 9.224 113.24 8.792C113.152 8.792 112.984 8.792 112.736 8.792C112.496 8.792 112.2 8.792 111.848 8.792C111.496 8.792 111.116 8.792 110.708 8.792C110.308 8.792 109.9 8.792 109.484 8.792C109.076 8.792 108.692 8.792 108.332 8.792C107.98 8.792 107.672 8.792 107.408 8.792C107.152 8.792 106.972 8.792 106.868 8.792C106.724 8.792 106.548 8.796 106.34 8.804C106.132 8.804 105.916 8.812 105.692 8.828V7.82C105.916 7.844 106.128 7.864 106.328 7.88C106.528 7.888 106.708 7.892 106.868 7.892C106.956 7.892 107.124 7.892 107.372 7.892C107.62 7.892 107.92 7.892 108.272 7.892C108.624 7.892 109.004 7.892 109.412 7.892C109.82 7.892 110.228 7.892 110.636 7.892C111.044 7.892 111.424 7.892 111.776 7.892C112.128 7.892 112.428 7.892 112.676 7.892C112.932 7.892 113.104 7.892 113.192 7.892C113.328 7.892 113.456 7.884 113.576 7.868C113.696 7.852 113.788 7.828 113.852 7.796L114.536 8.228ZM117.032 9.668C118.072 9.388 119.04 9.048 119.936 8.648C120.832 8.248 121.612 7.84 122.276 7.424C122.692 7.16 123.096 6.876 123.488 6.572C123.888 6.26 124.264 5.936 124.616 5.6C124.968 5.264 125.28 4.932 125.552 4.604L126.356 5.348C126.02 5.708 125.656 6.06 125.264 6.404C124.872 6.748 124.456 7.08 124.016 7.4C123.584 7.712 123.132 8.016 122.66 8.312C122.22 8.576 121.724 8.848 121.172 9.128C120.62 9.408 120.032 9.672 119.408 9.92C118.784 10.168 118.152 10.396 117.512 10.604L117.032 9.668ZM122.084 7.928L123.116 7.616V13.088C123.116 13.24 123.116 13.4 123.116 13.568C123.124 13.736 123.132 13.892 123.14 14.036C123.156 14.18 123.172 14.292 123.188 14.372H122.012C122.02 14.292 122.028 14.18 122.036 14.036C122.052 13.892 122.064 13.736 122.072 13.568C122.08 13.4 122.084 13.24 122.084 13.088V7.928ZM136.946 4.652C137.05 4.788 137.162 4.956 137.282 5.156C137.402 5.348 137.518 5.544 137.63 5.744C137.75 5.944 137.85 6.128 137.93 6.296L137.282 6.584C137.162 6.336 137.01 6.056 136.826 5.744C136.642 5.424 136.47 5.148 136.31 4.916L136.946 4.652ZM138.266 4.172C138.378 4.316 138.494 4.488 138.614 4.688C138.742 4.888 138.866 5.088 138.986 5.288C139.106 5.48 139.202 5.652 139.274 5.804L138.626 6.092C138.498 5.828 138.342 5.544 138.158 5.24C137.982 4.928 137.806 4.66 137.63 4.436L138.266 4.172ZM130.382 10.388C130.51 10.076 130.634 9.736 130.754 9.368C130.882 9 130.998 8.62 131.102 8.228C131.214 7.828 131.31 7.436 131.39 7.052C131.47 6.66 131.526 6.288 131.558 5.936L132.626 6.164C132.61 6.252 132.586 6.348 132.554 6.452C132.522 6.548 132.494 6.648 132.47 6.752C132.446 6.856 132.426 6.952 132.41 7.04C132.37 7.224 132.314 7.464 132.242 7.76C132.17 8.056 132.086 8.38 131.99 8.732C131.894 9.084 131.79 9.44 131.678 9.8C131.566 10.152 131.446 10.48 131.318 10.784C131.174 11.152 131.006 11.532 130.814 11.924C130.63 12.308 130.43 12.684 130.214 13.052C129.998 13.42 129.778 13.764 129.554 14.084L128.534 13.652C128.91 13.148 129.258 12.604 129.578 12.02C129.906 11.428 130.174 10.884 130.382 10.388ZM136.286 9.932C136.166 9.62 136.034 9.292 135.89 8.948C135.746 8.604 135.594 8.26 135.434 7.916C135.274 7.564 135.118 7.236 134.966 6.932C134.822 6.62 134.682 6.356 134.546 6.14L135.518 5.816C135.638 6.024 135.77 6.28 135.914 6.584C136.066 6.888 136.222 7.212 136.382 7.556C136.542 7.9 136.698 8.248 136.85 8.6C137.002 8.952 137.142 9.288 137.27 9.608C137.39 9.904 137.518 10.236 137.654 10.604C137.79 10.964 137.922 11.332 138.05 11.708C138.186 12.076 138.31 12.436 138.422 12.788C138.534 13.132 138.63 13.44 138.71 13.712L137.642 14.06C137.546 13.652 137.422 13.212 137.27 12.74C137.126 12.26 136.97 11.78 136.802 11.3C136.634 10.812 136.462 10.356 136.286 9.932ZM143.378 4.784C143.554 4.88 143.762 5.004 144.002 5.156C144.242 5.308 144.49 5.468 144.746 5.636C145.002 5.804 145.238 5.964 145.454 6.116C145.678 6.26 145.854 6.38 145.982 6.476L145.418 7.292C145.274 7.188 145.094 7.06 144.878 6.908C144.662 6.756 144.43 6.6 144.182 6.44C143.934 6.272 143.69 6.116 143.45 5.972C143.218 5.82 143.014 5.692 142.838 5.588L143.378 4.784ZM141.578 13.364C142.018 13.284 142.47 13.18 142.934 13.052C143.398 12.916 143.858 12.76 144.314 12.584C144.77 12.4 145.198 12.192 145.598 11.96C146.262 11.576 146.878 11.152 147.446 10.688C148.014 10.224 148.526 9.728 148.982 9.2C149.438 8.672 149.826 8.128 150.146 7.568L150.722 8.552C150.202 9.36 149.542 10.136 148.742 10.88C147.95 11.624 147.074 12.28 146.114 12.848C145.706 13.08 145.262 13.296 144.782 13.496C144.31 13.688 143.842 13.856 143.378 14C142.922 14.144 142.506 14.256 142.13 14.336L141.578 13.364ZM141.566 7.484C141.742 7.572 141.954 7.692 142.202 7.844C142.45 7.988 142.702 8.14 142.958 8.3C143.214 8.452 143.454 8.6 143.678 8.744C143.902 8.888 144.078 9.008 144.206 9.104L143.654 9.944C143.502 9.832 143.314 9.704 143.09 9.56C142.874 9.408 142.642 9.256 142.394 9.104C142.146 8.944 141.902 8.792 141.662 8.648C141.422 8.504 141.214 8.388 141.038 8.3L141.566 7.484ZM152.99 8.804C153.11 8.812 153.258 8.824 153.434 8.84C153.61 8.848 153.802 8.856 154.01 8.864C154.226 8.864 154.442 8.864 154.658 8.864C154.786 8.864 154.982 8.864 155.246 8.864C155.518 8.864 155.834 8.864 156.194 8.864C156.554 8.864 156.934 8.864 157.334 8.864C157.742 8.864 158.146 8.864 158.546 8.864C158.954 8.864 159.338 8.864 159.698 8.864C160.066 8.864 160.382 8.864 160.646 8.864C160.91 8.864 161.106 8.864 161.234 8.864C161.538 8.864 161.798 8.856 162.014 8.84C162.23 8.824 162.402 8.812 162.53 8.804V9.98C162.41 9.972 162.23 9.96 161.99 9.944C161.758 9.928 161.51 9.92 161.246 9.92C161.118 9.92 160.918 9.92 160.646 9.92C160.374 9.92 160.058 9.92 159.698 9.92C159.346 9.92 158.966 9.92 158.558 9.92C158.15 9.92 157.742 9.92 157.334 9.92C156.934 9.92 156.554 9.92 156.194 9.92C155.842 9.92 155.53 9.92 155.258 9.92C154.986 9.92 154.786 9.92 154.658 9.92C154.33 9.92 154.018 9.928 153.722 9.944C153.426 9.952 153.182 9.964 152.99 9.98V8.804ZM172.826 5.132C172.826 5.348 172.898 5.532 173.042 5.684C173.194 5.828 173.374 5.9 173.582 5.9C173.798 5.9 173.982 5.828 174.134 5.684C174.286 5.532 174.362 5.348 174.362 5.132C174.362 4.916 174.286 4.736 174.134 4.592C173.982 4.44 173.798 4.364 173.582 4.364C173.374 4.364 173.194 4.44 173.042 4.592C172.898 4.736 172.826 4.916 172.826 5.132ZM172.274 5.132C172.274 4.892 172.334 4.672 172.454 4.472C172.574 4.272 172.73 4.112 172.922 3.992C173.122 3.872 173.342 3.812 173.582 3.812C173.83 3.812 174.054 3.872 174.254 3.992C174.454 4.112 174.61 4.272 174.722 4.472C174.842 4.672 174.902 4.892 174.902 5.132C174.902 5.372 174.842 5.592 174.722 5.792C174.61 5.992 174.454 6.152 174.254 6.272C174.054 6.384 173.83 6.44 173.582 6.44C173.342 6.44 173.122 6.384 172.922 6.272C172.73 6.152 172.574 5.992 172.454 5.792C172.334 5.592 172.274 5.372 172.274 5.132ZM170.27 4.748C170.262 4.804 170.25 4.884 170.234 4.988C170.226 5.092 170.218 5.2 170.21 5.312C170.202 5.424 170.198 5.524 170.198 5.612C170.198 5.82 170.198 6.06 170.198 6.332C170.198 6.604 170.198 6.872 170.198 7.136C170.198 7.4 170.198 7.632 170.198 7.832C170.198 7.992 170.198 8.224 170.198 8.528C170.198 8.832 170.198 9.176 170.198 9.56C170.198 9.944 170.198 10.34 170.198 10.748C170.198 11.148 170.198 11.536 170.198 11.912C170.198 12.288 170.198 12.62 170.198 12.908C170.198 13.196 170.198 13.412 170.198 13.556C170.198 13.876 170.118 14.116 169.958 14.276C169.798 14.436 169.534 14.516 169.166 14.516C168.998 14.516 168.81 14.512 168.602 14.504C168.402 14.496 168.202 14.484 168.002 14.468C167.802 14.452 167.622 14.44 167.462 14.432L167.378 13.472C167.642 13.52 167.898 13.556 168.146 13.58C168.394 13.604 168.598 13.616 168.758 13.616C168.918 13.616 169.034 13.58 169.106 13.508C169.178 13.428 169.218 13.312 169.226 13.16C169.226 13.048 169.226 12.856 169.226 12.584C169.226 12.304 169.226 11.984 169.226 11.624C169.226 11.256 169.226 10.872 169.226 10.472C169.226 10.064 169.226 9.68 169.226 9.32C169.226 8.952 169.226 8.636 169.226 8.372C169.226 8.108 169.226 7.928 169.226 7.832C169.226 7.696 169.226 7.492 169.226 7.22C169.226 6.948 169.226 6.664 169.226 6.368C169.226 6.064 169.226 5.808 169.226 5.6C169.226 5.472 169.214 5.32 169.19 5.144C169.174 4.968 169.158 4.836 169.142 4.748H170.27ZM164.87 6.776C165.038 6.792 165.202 6.808 165.362 6.824C165.522 6.832 165.698 6.836 165.89 6.836C165.986 6.836 166.182 6.836 166.478 6.836C166.774 6.836 167.13 6.836 167.546 6.836C167.97 6.836 168.422 6.836 168.902 6.836C169.382 6.836 169.862 6.836 170.342 6.836C170.83 6.836 171.282 6.836 171.698 6.836C172.122 6.836 172.478 6.836 172.766 6.836C173.062 6.836 173.262 6.836 173.366 6.836C173.51 6.836 173.67 6.832 173.846 6.824C174.03 6.808 174.198 6.792 174.35 6.776V7.772C174.19 7.764 174.022 7.76 173.846 7.76C173.678 7.752 173.522 7.748 173.378 7.748C173.274 7.748 173.074 7.748 172.778 7.748C172.49 7.748 172.134 7.748 171.71 7.748C171.294 7.748 170.846 7.748 170.366 7.748C169.886 7.748 169.406 7.748 168.926 7.748C168.446 7.748 167.994 7.748 167.57 7.748C167.146 7.748 166.786 7.748 166.49 7.748C166.202 7.748 166.002 7.748 165.89 7.748C165.714 7.748 165.538 7.752 165.362 7.76C165.194 7.76 165.03 7.768 164.87 7.784V6.776ZM167.63 9.596C167.502 9.852 167.342 10.132 167.15 10.436C166.966 10.74 166.762 11.048 166.538 11.36C166.322 11.664 166.106 11.948 165.89 12.212C165.682 12.476 165.494 12.7 165.326 12.884L164.498 12.332C164.698 12.148 164.906 11.928 165.122 11.672C165.338 11.408 165.55 11.132 165.758 10.844C165.974 10.556 166.17 10.272 166.346 9.992C166.522 9.704 166.67 9.436 166.79 9.188L167.63 9.596ZM172.646 9.2C172.806 9.392 172.978 9.62 173.162 9.884C173.354 10.148 173.546 10.432 173.738 10.736C173.938 11.032 174.122 11.32 174.29 11.6C174.458 11.872 174.602 12.116 174.722 12.332L173.834 12.824C173.722 12.584 173.582 12.32 173.414 12.032C173.254 11.744 173.082 11.452 172.898 11.156C172.714 10.86 172.526 10.58 172.334 10.316C172.15 10.052 171.982 9.824 171.83 9.632L172.646 9.2ZM185.078 4.892C185.07 5.044 185.062 5.208 185.054 5.384C185.046 5.552 185.042 5.736 185.042 5.936C185.042 6.096 185.042 6.3 185.042 6.548C185.042 6.796 185.042 7.044 185.042 7.292C185.042 7.532 185.042 7.728 185.042 7.88C185.042 8.6 185.014 9.212 184.958 9.716C184.91 10.22 184.834 10.652 184.73 11.012C184.634 11.364 184.506 11.676 184.346 11.948C184.186 12.22 183.998 12.484 183.782 12.74C183.526 13.044 183.23 13.312 182.894 13.544C182.566 13.768 182.23 13.956 181.886 14.108C181.542 14.268 181.222 14.396 180.926 14.492L180.146 13.664C180.698 13.528 181.218 13.336 181.706 13.088C182.202 12.832 182.638 12.492 183.014 12.068C183.23 11.82 183.402 11.568 183.53 11.312C183.666 11.048 183.766 10.756 183.83 10.436C183.902 10.116 183.95 9.744 183.974 9.32C183.998 8.896 184.01 8.4 184.01 7.832C184.01 7.672 184.01 7.472 184.01 7.232C184.01 6.992 184.01 6.752 184.01 6.512C184.01 6.264 184.01 6.072 184.01 5.936C184.01 5.736 184.002 5.552 183.986 5.384C183.978 5.208 183.966 5.044 183.95 4.892H185.078ZM179.51 4.988C179.502 5.1 179.49 5.236 179.474 5.396C179.466 5.556 179.462 5.708 179.462 5.852C179.462 5.908 179.462 6.036 179.462 6.236C179.462 6.428 179.462 6.66 179.462 6.932C179.462 7.204 179.462 7.492 179.462 7.796C179.462 8.1 179.462 8.396 179.462 8.684C179.462 8.964 179.462 9.208 179.462 9.416C179.462 9.624 179.462 9.772 179.462 9.86C179.462 10.012 179.466 10.176 179.474 10.352C179.49 10.52 179.502 10.66 179.51 10.772H178.406C178.422 10.676 178.434 10.544 178.442 10.376C178.458 10.2 178.466 10.024 178.466 9.848C178.466 9.768 178.466 9.624 178.466 9.416C178.466 9.2 178.466 8.952 178.466 8.672C178.466 8.392 178.466 8.1 178.466 7.796C178.466 7.492 178.466 7.204 178.466 6.932C178.466 6.66 178.466 6.428 178.466 6.236C178.466 6.036 178.466 5.908 178.466 5.852C178.466 5.748 178.462 5.608 178.454 5.432C178.446 5.248 178.434 5.1 178.418 4.988H179.51ZM191.378 4.784C191.554 4.88 191.762 5.004 192.002 5.156C192.242 5.308 192.49 5.468 192.746 5.636C193.002 5.804 193.238 5.964 193.454 6.116C193.678 6.26 193.854 6.38 193.982 6.476L193.418 7.292C193.274 7.188 193.094 7.06 192.878 6.908C192.662 6.756 192.43 6.6 192.182 6.44C191.934 6.272 191.69 6.116 191.45 5.972C191.218 5.82 191.014 5.692 190.838 5.588L191.378 4.784ZM189.578 13.364C190.018 13.284 190.47 13.18 190.934 13.052C191.398 12.916 191.858 12.76 192.314 12.584C192.77 12.4 193.198 12.192 193.598 11.96C194.262 11.576 194.878 11.152 195.446 10.688C196.014 10.224 196.526 9.728 196.982 9.2C197.438 8.672 197.826 8.128 198.146 7.568L198.722 8.552C198.202 9.36 197.542 10.136 196.742 10.88C195.95 11.624 195.074 12.28 194.114 12.848C193.706 13.08 193.262 13.296 192.782 13.496C192.31 13.688 191.842 13.856 191.378 14C190.922 14.144 190.506 14.256 190.13 14.336L189.578 13.364ZM189.566 7.484C189.742 7.572 189.954 7.692 190.202 7.844C190.45 7.988 190.702 8.14 190.958 8.3C191.214 8.452 191.454 8.6 191.678 8.744C191.902 8.888 192.078 9.008 192.206 9.104L191.654 9.944C191.502 9.832 191.314 9.704 191.09 9.56C190.874 9.408 190.642 9.256 190.394 9.104C190.146 8.944 189.902 8.792 189.662 8.648C189.422 8.504 189.214 8.388 189.038 8.3L189.566 7.484ZM200.99 8.804C201.11 8.812 201.258 8.824 201.434 8.84C201.61 8.848 201.802 8.856 202.01 8.864C202.226 8.864 202.442 8.864 202.658 8.864C202.786 8.864 202.982 8.864 203.246 8.864C203.518 8.864 203.834 8.864 204.194 8.864C204.554 8.864 204.934 8.864 205.334 8.864C205.742 8.864 206.146 8.864 206.546 8.864C206.954 8.864 207.338 8.864 207.698 8.864C208.066 8.864 208.382 8.864 208.646 8.864C208.91 8.864 209.106 8.864 209.234 8.864C209.538 8.864 209.798 8.856 210.014 8.84C210.23 8.824 210.402 8.812 210.53 8.804V9.98C210.41 9.972 210.23 9.96 209.99 9.944C209.758 9.928 209.51 9.92 209.246 9.92C209.118 9.92 208.918 9.92 208.646 9.92C208.374 9.92 208.058 9.92 207.698 9.92C207.346 9.92 206.966 9.92 206.558 9.92C206.15 9.92 205.742 9.92 205.334 9.92C204.934 9.92 204.554 9.92 204.194 9.92C203.842 9.92 203.53 9.92 203.258 9.92C202.986 9.92 202.786 9.92 202.658 9.92C202.33 9.92 202.018 9.928 201.722 9.944C201.426 9.952 201.182 9.964 200.99 9.98V8.804Z" fill="white"/>
<path d="M230.125 4.625H224.875C224.453 4.625 224.125 4.97656 224.125 5.375V5.75H223V5.375C223 4.34375 223.82 3.5 224.875 3.5H230.125C231.156 3.5 232 4.34375 232 5.375V10.625C232 11.6797 231.156 12.5 230.125 12.5H229.75V11.375H230.125C230.523 11.375 230.875 11.0469 230.875 10.625V5.375C230.875 4.97656 230.523 4.625 230.125 4.625ZM227.5 6.5C228.32 6.5 229 7.17969 229 8V14C229 14.8438 228.32 15.5 227.5 15.5H221.5C220.656 15.5 220 14.8438 220 14V8C220 7.17969 220.656 6.5 221.5 6.5H227.5ZM221.5 14.375H227.5C227.688 14.375 227.875 14.2109 227.875 14V9.5H221.125V14C221.125 14.2109 221.289 14.375 221.5 14.375Z" fill="white" fill-opacity="0.2"/>
</svg>
