<svg width="163" height="40" viewBox="0 0 163 40" fill="none" xmlns="http://www.w3.org/2000/svg">
<path d="M22.875 9.125C24.9258 9.125 26.625 10.8242 26.625 12.875V31.625C26.625 33.7344 24.9258 35.375 22.875 35.375H4.125C2.01562 35.375 0.375 33.7344 0.375 31.625V12.875C0.375 10.8242 2.01562 9.125 4.125 9.125H22.875ZM7.875 20.375C6.82031 20.375 6 21.2539 6 22.25V27.875C6 28.9297 6.82031 29.75 7.875 29.75C8.87109 29.75 9.75 28.9297 9.75 27.875V22.25C9.75 21.2539 8.87109 20.375 7.875 20.375ZM11.625 27.875C11.625 28.9297 12.4453 29.75 13.5 29.75C14.4961 29.75 15.375 28.9297 15.375 27.875V16.625C15.375 15.6289 14.4961 14.75 13.5 14.75C12.4453 14.75 11.625 15.6289 11.625 16.625V27.875ZM19.125 24.125C18.0703 24.125 17.25 25.0039 17.25 26V27.875C17.25 28.9297 18.0703 29.75 19.125 29.75C20.1211 29.75 21 28.9297 21 27.875V26C21 25.0039 20.1211 24.125 19.125 24.125Z" fill="white"/>
<path d="M51.352 11.536H63.192V13.872H51.352V11.536ZM36.536 9.104H52.152V11.376H36.536V9.104ZM40.28 15.632H48.568V17.808H40.28V15.632ZM40.28 22.288H48.568V24.464H40.28V22.288ZM62.456 11.536H62.904L63.32 11.44L64.856 11.856C64.344 16.1227 63.48 19.824 62.264 22.96C61.048 26.0747 59.5333 28.72 57.72 30.896C55.928 33.0507 53.88 34.7893 51.576 36.112C51.384 35.8133 51.1387 35.4613 50.84 35.056C50.5413 34.672 50.264 34.3627 50.008 34.128C52.12 33.04 54.0293 31.4827 55.736 29.456C57.4427 27.4293 58.872 24.9653 60.024 22.064C61.1973 19.1627 62.008 15.8347 62.456 12.08V11.536ZM54.264 14C54.84 17.072 55.6507 19.9307 56.696 22.576C57.7413 25.2213 59.0427 27.5467 60.6 29.552C62.1787 31.536 64.0667 33.0933 66.264 34.224C66.0933 34.3733 65.9013 34.5653 65.688 34.8C65.4747 35.0347 65.272 35.2693 65.08 35.504C64.888 35.76 64.728 35.9947 64.6 36.208C62.2747 34.9067 60.2907 33.2 58.648 31.088C57.0267 28.9547 55.672 26.4907 54.584 23.696C53.5173 20.88 52.6427 17.7973 51.96 14.448L54.264 14ZM39 9.968H41.304V30.736H39V9.968ZM47.576 9.968H49.912V36.496H47.576V9.968ZM35.864 30.064C36.9307 29.9147 38.1467 29.7547 39.512 29.584C40.8773 29.392 42.328 29.1893 43.864 28.976C45.4213 28.7413 46.9787 28.5067 48.536 28.272L48.664 30.48C46.4667 30.8427 44.2693 31.2053 42.072 31.568C39.896 31.9093 37.976 32.1973 36.312 32.432L35.864 30.064ZM80.664 22.608H83.128C83.128 22.608 83.1173 22.6827 83.096 22.832C83.096 22.96 83.096 23.1093 83.096 23.28C83.096 23.4507 83.0853 23.6 83.064 23.728C82.872 26.2453 82.6693 28.2933 82.456 29.872C82.264 31.4507 82.0293 32.6773 81.752 33.552C81.496 34.4267 81.1867 35.056 80.824 35.44C80.4827 35.8027 80.1093 36.048 79.704 36.176C79.32 36.3253 78.8293 36.4213 78.232 36.464C77.72 36.5067 76.9947 36.5173 76.056 36.496C75.1387 36.496 74.168 36.4747 73.144 36.432C73.1227 36.048 73.0373 35.6213 72.888 35.152C72.7387 34.6827 72.536 34.2773 72.28 33.936C73.3467 34.0213 74.36 34.0747 75.32 34.096C76.28 34.1387 76.952 34.16 77.336 34.16C77.6773 34.16 77.9547 34.1387 78.168 34.096C78.3813 34.0533 78.5733 33.9573 78.744 33.808C79.0427 33.552 79.2987 33.0293 79.512 32.24C79.7467 31.4507 79.9493 30.3093 80.12 28.816C80.312 27.3013 80.4933 25.3493 80.664 22.96V22.608ZM71.192 15.824H73.656C73.464 16.976 73.2507 18.2027 73.016 19.504C72.8027 20.784 72.5787 22.0213 72.344 23.216C72.1307 24.4107 71.9173 25.4667 71.704 26.384L69.304 26C69.5173 25.104 69.7413 24.08 69.976 22.928C70.232 21.7547 70.456 20.5493 70.648 19.312C70.8613 18.0533 71.0427 16.8907 71.192 15.824ZM91.768 7.44H94.168V36.56H91.768V7.44ZM71.256 22.608H81.4V24.848H70.904L71.256 22.608ZM72.056 15.824H80.632V10.704H70.104V8.464H82.968V18.064H72.056V15.824ZM109.016 10.352H129.432V12.56H109.016V10.352ZM109.464 17.808H129.144V35.856H126.84V19.92H111.672V36.016H109.464V17.808ZM115.064 10.704H117.304V19.344H115.064V10.704ZM121.016 10.672H123.288V19.312H121.016V10.672ZM110.488 31.824H128.504V33.936H110.488V31.824ZM115.224 19.28H117.304V33.424H115.224V19.28ZM121.016 19.28H123.096V33.392H121.016V19.28ZM107.128 7.216L109.304 7.888C108.643 9.65867 107.864 11.408 106.968 13.136C106.093 14.8427 105.144 16.464 104.12 18C103.096 19.5147 102.029 20.8587 100.92 22.032C100.856 21.8613 100.739 21.6267 100.568 21.328C100.419 21.0293 100.259 20.7307 100.088 20.432C99.9173 20.1333 99.7573 19.8987 99.608 19.728C100.611 18.704 101.571 17.52 102.488 16.176C103.427 14.832 104.291 13.4027 105.08 11.888C105.869 10.352 106.552 8.79467 107.128 7.216ZM103.96 15.504L106.168 13.264L106.2 13.296V36.528H103.96V15.504ZM148.696 10.576H157.72V12.656H148.696V10.576ZM145.784 24.816H159.288V36.464H156.952V26.896H148.024V36.592H145.784V24.816ZM146.744 33.072H158.2V35.184H146.744V33.072ZM149.624 7.088L151.928 7.696C151.373 9.12533 150.701 10.5013 149.912 11.824C149.123 13.1467 148.269 14.384 147.352 15.536C146.435 16.6667 145.485 17.6587 144.504 18.512C144.376 18.3627 144.195 18.192 143.96 18C143.725 17.7867 143.48 17.584 143.224 17.392C142.989 17.1787 142.787 17.008 142.616 16.88C144.088 15.728 145.432 14.288 146.648 12.56C147.885 10.832 148.877 9.008 149.624 7.088ZM157.08 10.576H157.496L157.944 10.48L159.448 11.184C158.765 13.168 157.859 14.9707 156.728 16.592C155.597 18.2133 154.317 19.6747 152.888 20.976C151.459 22.256 149.923 23.3653 148.28 24.304C146.637 25.2427 144.973 26.0213 143.288 26.64C143.139 26.3413 142.925 26 142.648 25.616C142.392 25.232 142.147 24.9227 141.912 24.688C143.512 24.1973 145.091 23.5253 146.648 22.672C148.205 21.7973 149.667 20.784 151.032 19.632C152.397 18.4587 153.592 17.1467 154.616 15.696C155.661 14.2453 156.483 12.6667 157.08 10.96V10.576ZM148.504 12.24C149.187 13.7333 150.147 15.248 151.384 16.784C152.643 18.2987 154.179 19.696 155.992 20.976C157.827 22.2347 159.917 23.216 162.264 23.92C162.093 24.0907 161.912 24.2933 161.72 24.528C161.528 24.7627 161.347 25.008 161.176 25.264C161.027 25.4987 160.888 25.7227 160.76 25.936C158.392 25.104 156.291 24.0053 154.456 22.64C152.621 21.2747 151.064 19.7813 149.784 18.16C148.504 16.5387 147.501 14.9387 146.776 13.36L148.504 12.24ZM132.664 13.968H143.896V16.24H132.664V13.968ZM137.464 7.12H139.736V36.528H137.464V7.12ZM137.368 15.408L138.904 15.92C138.648 17.2 138.307 18.5333 137.88 19.92C137.475 21.2853 137.016 22.6293 136.504 23.952C136.013 25.2533 135.48 26.4693 134.904 27.6C134.328 28.7307 133.741 29.7013 133.144 30.512C133.016 30.192 132.824 29.8293 132.568 29.424C132.333 29.0187 132.109 28.6773 131.896 28.4C132.472 27.6747 133.027 26.8107 133.56 25.808C134.115 24.8053 134.637 23.7173 135.128 22.544C135.619 21.3707 136.056 20.176 136.44 18.96C136.824 17.744 137.133 16.56 137.368 15.408ZM139.608 17.52C139.8 17.7333 140.088 18.0747 140.472 18.544C140.877 18.992 141.304 19.4933 141.752 20.048C142.2 20.6027 142.616 21.1147 143 21.584C143.384 22.0533 143.651 22.3947 143.8 22.608L142.36 24.432C142.168 24.0907 141.901 23.6533 141.56 23.12C141.219 22.5867 140.845 22.032 140.44 21.456C140.035 20.8587 139.651 20.304 139.288 19.792C138.925 19.28 138.627 18.8853 138.392 18.608L139.608 17.52Z" fill="white"/>
</svg>
