<svg width="709" height="185" viewBox="0 0 709 185" fill="none" xmlns="http://www.w3.org/2000/svg">
<path d="M419.85 69.5599H413.45V130.05H419.85V69.5599Z" fill="#231815"/>
<path d="M119.66 130.15H74.56V49.58H81.07V124.3H119.66V130.15Z" fill="#231815"/>
<path d="M287.16 134.67L244 81.3399V129.91H237.82V64.9199L280.65 118.25V69.0699H287.16V134.67Z" fill="#231815"/>
<path d="M350.96 130.46C350.93 130.46 350.91 130.46 350.89 130.46H329.09V82.6H335.6V124.61H350.93C351.17 124.61 361.08 124.54 367.84 117.81C372.19 113.48 374.4 107.24 374.4 99.27V99.05C374.4 90.77 372.14 84.37 367.67 80.05C360.9 73.49 351.12 73.72 351.02 73.72H328.96V67.87H350.92C351.3 67.85 363.09 67.52 371.69 75.8C377.37 81.27 380.25 89.09 380.25 99.05V99.27C380.25 108.88 377.44 116.53 371.91 122C363.57 130.26 352.06 130.46 350.96 130.46Z" fill="#231815"/>
<path d="M174.69 65.66L174.21 66.68H175.17L174.69 65.66Z" fill="#231815"/>
<path d="M174.21 66.68L144.4 130.05H150.86L174.69 79.39L198.52 130.05H204.98L175.17 66.68H174.21Z" fill="#231815"/>
<path d="M563.07 91.7999H559.31V129.11H563.07V91.7999Z" fill="#231815"/>
<path d="M603.99 129.11H600.33V114.71C600.33 111.03 599.43 108.35 597.65 106.74C595.76 105.03 593.18 104.68 591.34 104.68C585.63 104.77 582.35 107.99 582.35 113.53V129.11H578.69V101.73H582.35V104.27C584.8 102.03 588.41 101.03 591.37 101.12C594.83 101.12 597.72 102.05 599.93 103.9C602.63 106.18 603.99 109.82 603.99 114.72V129.11Z" fill="#231815"/>
<path d="M630.14 130.39C621.96 130.39 615.79 124.26 615.77 116.13C615.77 116.12 615.77 116.11 615.77 116.11C615.77 116.1 615.77 116.09 615.77 116.09C615.79 107.93 621.96 101.79 630.12 101.79C636.43 101.79 641.76 105.53 643.7 111.33L644.22 112.87H640.3L640.03 112.09C638.14 106.7 632.93 105.31 630.18 105.36C627.03 105.4 624.94 106.23 622.48 108.42C620.63 110.1 619.42 113.12 619.42 116.1C619.42 122.22 624.02 126.84 630.11 126.84C635.43 126.8 638.95 123.45 639.96 120.37L640.22 119.57H644.17L643.64 121.12C641.73 126.72 636.55 130.28 630.14 130.39Z" fill="#231815"/>
<path d="M655.45 124.21H650.71V128.95H655.45V124.21Z" fill="#231815"/>
<path d="M490.04 49.58H483.64V81.56H490.04V49.58Z" fill="#231815"/>
<path d="M446.81 86.54V92.38H483.64V130.13H490.04V92.38H526.32V86.54H446.81Z" fill="#231815"/>
</svg>
