<svg width="14" height="15" viewBox="0 0 14 15" fill="none" xmlns="http://www.w3.org/2000/svg">
<path d="M11.2383 5.0625C11.4023 5.33594 11.4023 5.66406 11.2383 5.9375C11.1016 6.21094 10.8008 6.375 10.5 6.375H5.25C4.92188 6.375 4.62109 6.21094 4.48438 5.9375C4.32031 5.66406 4.32031 5.33594 4.48438 5.0625L7.10938 0.6875C7.27344 0.414062 7.54688 0.25 7.875 0.25C8.17578 0.25 8.44922 0.414062 8.61328 0.6875L11.2383 5.0625ZM7.875 8.78125C7.875 8.17969 8.33984 7.6875 8.96875 7.6875H12.9062C13.5078 7.6875 14 8.17969 14 8.78125V12.7188C14 13.3477 13.5078 13.8125 12.9062 13.8125H8.96875C8.33984 13.8125 7.875 13.3477 7.875 12.7188V8.78125ZM0 10.75C0 8.83594 1.55859 7.25 3.5 7.25C5.41406 7.25 7 8.83594 7 10.75C7 12.6914 5.41406 14.25 3.5 14.25C1.55859 14.25 0 12.6914 0 10.75Z" fill="white"/>
<path d="M11.2383 5.0625C11.4023 5.33594 11.4023 5.66406 11.2383 5.9375C11.1016 6.21094 10.8008 6.375 10.5 6.375H5.25C4.92188 6.375 4.62109 6.21094 4.48438 5.9375C4.32031 5.66406 4.32031 5.33594 4.48438 5.0625L7.10938 0.6875C7.27344 0.414062 7.54688 0.25 7.875 0.25C8.17578 0.25 8.44922 0.414062 8.61328 0.6875L11.2383 5.0625ZM7.875 8.78125C7.875 8.17969 8.33984 7.6875 8.96875 7.6875H12.9062C13.5078 7.6875 14 8.17969 14 8.78125V12.7188C14 13.3477 13.5078 13.8125 12.9062 13.8125H8.96875C8.33984 13.8125 7.875 13.3477 7.875 12.7188V8.78125ZM0 10.75C0 8.83594 1.55859 7.25 3.5 7.25C5.41406 7.25 7 8.83594 7 10.75C7 12.6914 5.41406 14.25 3.5 14.25C1.55859 14.25 0 12.6914 0 10.75Z" fill="#007E6C" fill-opacity="0.2"/>
<path d="M11.2383 5.0625C11.4023 5.33594 11.4023 5.66406 11.2383 5.9375C11.1016 6.21094 10.8008 6.375 10.5 6.375H5.25C4.92188 6.375 4.62109 6.21094 4.48438 5.9375C4.32031 5.66406 4.32031 5.33594 4.48438 5.0625L7.10938 0.6875C7.27344 0.414062 7.54688 0.25 7.875 0.25C8.17578 0.25 8.44922 0.414062 8.61328 0.6875L11.2383 5.0625ZM7.875 8.78125C7.875 8.17969 8.33984 7.6875 8.96875 7.6875H12.9062C13.5078 7.6875 14 8.17969 14 8.78125V12.7188C14 13.3477 13.5078 13.8125 12.9062 13.8125H8.96875C8.33984 13.8125 7.875 13.3477 7.875 12.7188V8.78125ZM0 10.75C0 8.83594 1.55859 7.25 3.5 7.25C5.41406 7.25 7 8.83594 7 10.75C7 12.6914 5.41406 14.25 3.5 14.25C1.55859 14.25 0 12.6914 0 10.75Z" fill="black" fill-opacity="0.8"/>
</svg>
