<svg width="27" height="27" viewBox="0 0 27 27" fill="none" xmlns="http://www.w3.org/2000/svg">
<path d="M22.875 0.125C24.9258 0.125 26.625 1.82422 26.625 3.875V22.625C26.625 24.7344 24.9258 26.375 22.875 26.375H4.125C2.01562 26.375 0.375 24.7344 0.375 22.625V3.875C0.375 1.82422 2.01562 0.125 4.125 0.125H22.875ZM7.875 11.375C6.82031 11.375 6 12.2539 6 13.25V18.875C6 19.9297 6.82031 20.75 7.875 20.75C8.87109 20.75 9.75 19.9297 9.75 18.875V13.25C9.75 12.2539 8.87109 11.375 7.875 11.375ZM11.625 18.875C11.625 19.9297 12.4453 20.75 13.5 20.75C14.4961 20.75 15.375 19.9297 15.375 18.875V7.625C15.375 6.62891 14.4961 5.75 13.5 5.75C12.4453 5.75 11.625 6.62891 11.625 7.625V18.875ZM19.125 15.125C18.0703 15.125 17.25 16.0039 17.25 17V18.875C17.25 19.9297 18.0703 20.75 19.125 20.75C20.1211 20.75 21 19.9297 21 18.875V17C21 16.0039 20.1211 15.125 19.125 15.125Z" fill="white"/>
</svg>
