<svg width="12" height="13" viewBox="0 0 12 13" fill="none" xmlns="http://www.w3.org/2000/svg">
<path d="M10.125 1.625H4.875C4.45312 1.625 4.125 1.97656 4.125 2.375V2.75H3V2.375C3 1.34375 3.82031 0.5 4.875 0.5H10.125C11.1562 0.5 12 1.34375 12 2.375V7.625C12 8.67969 11.1562 9.5 10.125 9.5H9.75V8.375H10.125C10.5234 8.375 10.875 8.04688 10.875 7.625V2.375C10.875 1.97656 10.5234 1.625 10.125 1.625ZM7.5 3.5C8.32031 3.5 9 4.17969 9 5V11C9 11.8438 8.32031 12.5 7.5 12.5H1.5C0.65625 12.5 0 11.8438 0 11V5C0 4.17969 0.65625 3.5 1.5 3.5H7.5ZM1.5 11.375H7.5C7.6875 11.375 7.875 11.2109 7.875 11V6.5H1.125V11C1.125 11.2109 1.28906 11.375 1.5 11.375Z" fill="white" fill-opacity="0.2"/>
</svg>
